<svg fill="currentColor" viewBox="0 0 58 58" xmlns="http://www.w3.org/2000/svg">
<g clip-path="url(#clip0_1_18805)">
<path d="M31.825 21.6697C31.2887 21.5635 26.5149 20.4133 26.6255 13.1803C26.6452 11.9025 26.7701 10.7452 26.9593 9.6762C23.523 8.06469 20.9335 8.48051 20.9112 8.48408L20.9076 8.48586L20.9103 8.48765C20.9059 8.51888 20.0519 13.6871 25.3353 19.1364C27.9774 21.8616 30.3349 22.032 31.8232 21.7206L31.825 21.6697Z"/>
<path d="M31.8848 0.447952V0.446167L31.883 0.447952L31.8812 0.446167V0.447952C31.8554 0.46669 28.1059 3.17217 26.9584 9.67709C28.3879 10.3472 29.9583 11.36 31.5591 12.9108C35.7904 17.0154 33.8648 20.4535 33.5249 20.9826L33.5374 21.0272C35.1078 20.1224 37.2146 18.0166 37.1405 13.1812C37.0031 4.11534 31.916 0.470259 31.8848 0.447952Z"/>
<path d="M26.1741 36.3303C26.7103 36.4365 31.4851 37.5876 31.3735 44.8197C31.3568 45.9951 31.2455 47.1672 31.0407 48.3247C34.4761 49.9362 37.0665 49.5195 37.0888 49.5159H37.0932L37.0888 49.5133C37.0932 49.482 37.9481 44.3138 32.6647 38.8645C30.0226 36.1402 27.6651 35.9698 26.175 36.2812L26.1741 36.3303Z"/>
<path d="M26.1151 57.5521L26.1178 57.5538V57.5521C26.1437 57.5333 29.8932 54.8278 31.0416 48.3238C29.6121 47.6528 28.0407 46.64 26.4408 45.0892C22.2104 40.9846 24.1342 37.5465 24.4751 37.0183L24.4617 36.9737C22.8903 37.8776 20.7854 39.9834 20.8594 44.8188C20.996 53.8856 26.0821 57.5298 26.1151 57.5521Z"/>
<path d="M36.1804 25.8145C35.8762 25.3612 33.3135 21.1709 38.5067 16.1347C39.3496 15.316 40.257 14.5664 41.2202 13.8932C39.9299 10.324 37.8044 8.78567 37.7866 8.77318L37.783 8.77139V8.77496C37.7598 8.7937 33.5008 11.8436 33.3831 19.4336C33.3251 23.2277 34.8705 25.0159 36.1439 25.8475L36.1804 25.8145Z"/>
<path d="M51.2291 10.8514L51.23 10.8496H51.2283V10.8469L51.2265 10.8487C51.1952 10.8433 46.6311 10.1054 41.2201 13.8933C41.7564 15.3781 42.1508 17.2046 42.1865 19.4336C42.2757 25.3273 38.4843 26.3972 37.8695 26.531C37.8615 26.5444 37.8526 26.5569 37.8463 26.5712C39.597 27.0414 42.5755 27.0423 45.9413 23.5712C52.2544 17.0627 51.2363 10.8889 51.2291 10.8514Z"/>
<path d="M21.8187 32.1846C22.1221 32.6388 24.6848 36.8291 19.4925 41.8653C18.6492 42.6843 17.7415 43.4342 16.7781 44.1077C18.0692 47.6769 20.1947 49.2143 20.2135 49.2268L20.217 49.2286L20.2161 49.2251C20.2411 49.2063 24.5001 46.1564 24.6179 38.5664C24.675 34.7732 23.1295 32.9851 21.8544 32.1525C21.8428 32.1632 21.8303 32.1757 21.8187 32.1846Z"/>
<path d="M6.76906 47.1487V47.1505H6.77174V47.1531L6.77263 47.1514C6.80386 47.1567 11.368 47.8946 16.7781 44.1077C16.2427 42.622 15.8474 40.7954 15.8135 38.5665C15.7243 32.6728 19.5139 31.602 20.1296 31.469C20.1376 31.4557 20.1456 31.4432 20.1519 31.4289C18.4021 30.9578 15.4236 30.9578 12.0578 34.4288C5.74469 40.9364 6.76371 47.1112 6.76906 47.1487Z"/>
<path d="M36.3303 31.8242C36.4356 31.2888 37.5867 26.5149 44.8198 26.6256C46.0966 26.6443 47.2549 26.7701 48.323 26.9593C49.9354 23.5221 49.5195 20.9335 49.516 20.9112L49.5151 20.9077L49.5115 20.9103C49.4821 20.9059 44.3138 20.0519 38.8645 25.3353C36.1394 27.9774 35.969 30.3349 36.2804 31.8233L36.3303 31.8242Z"/>
<path d="M57.5512 31.8848L57.5521 31.8831L57.5539 31.8813H57.5512C57.5324 31.8554 54.827 28.1068 48.322 26.9584C47.651 28.3879 46.6383 29.9583 45.0892 31.5591C40.9837 35.7896 37.5465 33.8649 37.0183 33.5249C37.0032 33.5291 36.988 33.5329 36.9728 33.5365C37.8776 35.1079 39.9825 37.2146 44.8188 37.1414C53.8838 37.0022 57.5298 31.917 57.5512 31.8848Z"/>
<path d="M21.6697 26.1741C21.5626 26.7103 20.4124 31.4842 13.1785 31.3735C12.0037 31.3567 10.8322 31.2454 9.67531 31.0407C8.06291 34.477 8.47962 37.0665 8.48319 37.0888L8.48408 37.0924L8.48586 37.0888C8.51799 37.0941 13.6862 37.9481 19.1356 32.6647C21.8589 30.0226 22.0302 27.6651 21.7188 26.1759C21.7009 26.1759 21.684 26.1759 21.6697 26.1741Z"/>
<path d="M0.447952 26.1143L0.446167 26.1152L0.447952 26.117L0.446167 26.1188L0.447952 26.1179C0.46669 26.1446 3.17217 29.8932 9.6762 31.0416C10.3472 29.6122 11.3591 28.0408 12.9108 26.4409C17.0154 22.2105 20.4535 24.1334 20.9817 24.4751L21.0264 24.4618C20.1224 22.8913 18.0166 20.7854 13.1812 20.8595C4.11444 20.996 0.470259 26.0831 0.447952 26.1143Z"/>
<path d="M32.1856 36.1804C32.6389 35.8761 36.8283 33.3143 41.8654 38.5067C42.6836 39.3498 43.4329 40.2572 44.1059 41.2202C47.6752 39.9299 49.2135 37.8044 49.2269 37.7866V37.7848L49.2287 37.7821H49.2242C49.2055 37.7589 46.1556 33.499 38.5665 33.3821C34.7724 33.3241 32.9842 34.8696 32.1526 36.1429L32.1856 36.1804Z"/>
<path d="M47.1487 51.2283L47.1504 51.2292L47.1522 51.2283L47.1504 51.2265C47.1558 51.1944 47.8946 46.6311 44.1059 41.2202C42.6211 41.7564 40.7954 42.1508 38.5664 42.1865C32.6727 42.2758 31.6029 38.4843 31.469 37.8695C31.4539 37.8615 31.4423 37.8526 31.4289 37.8463C30.9586 39.5971 30.9577 42.5756 34.4288 45.9423C40.9373 52.2535 47.1112 51.2363 47.1487 51.2283Z"/>
<path d="M25.8154 21.8187C25.3594 22.1221 21.1709 24.6848 16.1347 19.4916C15.3155 18.6494 14.5659 17.7422 13.8932 16.779C10.324 18.0692 8.78568 20.1947 8.77318 20.2135L8.77051 20.217L8.77497 20.2152C8.79371 20.2411 11.8436 24.5001 19.4336 24.6179C23.2268 24.675 25.0141 23.1295 25.8475 21.8544C25.8368 21.8428 25.8225 21.8303 25.8154 21.8187Z"/>
<path d="M10.8513 6.76995L10.8495 6.76906V6.77173H10.8469L10.8486 6.77263C10.8433 6.80386 10.1045 11.368 13.8932 16.779C15.378 16.2427 17.2037 15.8474 19.4335 15.8135C25.3263 15.7243 26.398 19.5148 26.5301 20.1296C26.5443 20.1376 26.5568 20.1456 26.5711 20.1519C27.0422 18.4021 27.0414 15.4235 23.5703 12.0569C17.0627 5.74469 10.8888 6.7637 10.8513 6.76995Z"/>
</g>
<defs>
<clipPath id="clip0_1_18805">
<rect width="58" height="58"/>
</clipPath>
</defs>
</svg>
